# xmcd
#
# Track frame offsets:
#	150
#	23887
#	43838
#	73510
#	94229
#	120385
#	134548
#	152128
#	183897
#
# Disc length: 2577 seconds
#
# Revision: 0
# Processed by: cddbd v1.5.2PL0 Copyright (c) Steve Scherf et al.
# Submitted via: EZCDAudioConverter 1.3.4.1
#
DISCID=760a0f09
DTITLE=Roxy Music - Roxy Music (1972)
DYEAR=1972
DGENRE=
TTITLE0=Re-Make/Re-Model
TTITLE1=Ladytron
TTITLE2=If There Is Something
TTITLE3=2 H.B.
TTITLE4=The Bob (Medley)
TTITLE5=Chance Meeting
TTITLE6=Would You Believe?
TTITLE7=Sea Breezes
TTITLE8=Bitters End
EXTD=
EXTT0=
EXTT1=
EXTT2=
EXTT3=
EXTT4=
EXTT5=
EXTT6=
EXTT7=
EXTT8=
PLAYORDER=
